<svg width="48" height="48" viewBox="0 0 48 48" xmlns="http://www.w3.org/2000/svg">
  <!-- テックスタイルな星羅盤ロゴ - デジタル時代の占い -->
  <defs>
    <linearGradient id="techGradient" x1="0%" y1="0%" x2="100%" y2="100%">
      <stop offset="0%" style="stop-color:#00bcd4"/>
      <stop offset="50%" style="stop-color:#3f51b5"/>
      <stop offset="100%" style="stop-color:#1a237e"/>
    </linearGradient>
  </defs>

  <!-- デジタル風の格子パターン -->
  <g stroke="url(#techGradient)" stroke-width="1" fill="none" opacity="0.3">
    <line x1="8" y1="8" x2="40" y2="8"/>
    <line x1="8" y1="16" x2="40" y2="16"/>
    <line x1="8" y1="24" x2="40" y2="24"/>
    <line x1="8" y1="32" x2="40" y2="32"/>
    <line x1="8" y1="40" x2="40" y2="40"/>
    <line x1="8" y1="8" x2="8" y2="40"/>
    <line x1="16" y1="8" x2="16" y2="40"/>
    <line x1="24" y1="8" x2="24" y2="40"/>
    <line x1="32" y1="8" x2="32" y2="40"/>
    <line x1="40" y1="8" x2="40" y2="40"/>
  </g>

  <!-- 中央のハイテクな星 -->
  <g transform="translate(24,24)">
    <!-- 外側のリング -->
    <circle cx="0" cy="0" r="10" fill="none" stroke="url(#techGradient)" stroke-width="2"/>
    <!-- 内側の星 -->
    <polygon points="0,-6 2,-2 6,-2 3,1 4,5 0,3 -4,5 -3,1 -6,-2 -2,-2" fill="url(#techGradient)"/>
    <!-- 中央のドット -->
    <circle cx="0" cy="0" r="1.5" fill="#00bcd4"/>
  </g>

  <!-- テクノロジー要素（バイナリ風のドット） -->
  <g fill="#00bcd4" opacity="0.6">
    <circle cx="12" cy="12" r="1"/>
    <circle cx="20" cy="10" r="0.5"/>
    <circle cx="36" cy="12" r="1"/>
    <circle cx="28" cy="10" r="0.5"/>
    <circle cx="12" cy="36" r="1"/>
    <circle cx="20" cy="38" r="0.5"/>
    <circle cx="36" cy="36" r="1"/>
    <circle cx="28" cy="38" r="0.5"/>
  </g>
</svg>