<svg width="48" height="48" viewBox="0 0 48 48" xmlns="http://www.w3.org/2000/svg">
  <!-- 外縁円 -->
  <circle cx="24" cy="24" r="22" fill="none" stroke="#1a237e" stroke-width="1" opacity="0.3"/>

  <!-- 中央太極 -->
  <circle cx="24" cy="24" r="3" fill="#1a237e"/>

  <!-- 九星（9つの星を円環状に配置） -->
  <!-- 星1: 上 -->
  <polygon points="24,8 25.5,12 29,12 26.25,14.5 27.5,18 24,15.5 20.5,18 21.75,14.5 19,12 22.5,12" fill="#ffd700"/>

  <!-- 星2: 右上 -->
  <polygon points="35.5,12.5 37,16.5 40.5,16.5 37.75,19 39,22.5 35.5,20 32,22.5 33.25,19 30.5,16.5 34,16.5" fill="#ffd700" transform="scale(0.7) translate(8, 4)"/>

  <!-- 星3: 右 -->
  <polygon points="40,24 38.5,20 35,20 37.75,17.5 36.5,14 40,16.5 43.5,14 42.25,17.5 45,20 41.5,20" fill="#ffd700" transform="scale(0.7) translate(13, 0)"/>

  <!-- 星4: 右下 -->
  <polygon points="35.5,35.5 37,31.5 40.5,31.5 37.75,29 39,25.5 35.5,28 32,25.5 33.25,29 30.5,31.5 34,31.5" fill="#ffd700" transform="scale(0.7) translate(8, -4)"/>

  <!-- 星5: 下 -->
  <polygon points="24,40 22.5,36 19,36 21.75,33.5 20.5,30 24,32.5 27.5,30 26.25,33.5 29,36 25.5,36" fill="#ffd700"/>

  <!-- 星6: 左下 -->
  <polygon points="12.5,35.5 11,31.5 7.5,31.5 10.25,29 9,25.5 12.5,28 16,25.5 14.75,29 17.5,31.5 14,31.5" fill="#ffd700" transform="scale(0.7) translate(-8, -4)"/>

  <!-- 星7: 左 -->
  <polygon points="8,24 9.5,20 13,20 10.25,17.5 11.5,14 8,16.5 4.5,14 5.75,17.5 3,20 6.5,20" fill="#ffd700" transform="scale(0.7) translate(-13, 0)"/>

  <!-- 星8: 左上 -->
  <polygon points="12.5,12.5 11,16.5 7.5,16.5 10.25,19 9,22.5 12.5,20 16,22.5 14.75,19 17.5,16.5 14,16.5" fill="#ffd700" transform="scale(0.7) translate(-8, 4)"/>

  <!-- 星9: 中央上（内側） -->
  <circle cx="24" cy="16" r="1.5" fill="#ffd700"/>

  <!-- 内側円環 -->
  <circle cx="24" cy="24" r="18" fill="none" stroke="#1a237e" stroke-width="0.5" opacity="0.5"/>
</svg>