<svg width="48" height="48" viewBox="0 0 48 48" xmlns="http://www.w3.org/2000/svg">
  <!-- レターマークロゴ - Sの文字をベースに -->
  <defs>
    <linearGradient id="letterGradient" x1="0%" y1="0%" x2="100%" y2="100%">
      <stop offset="0%" style="stop-color:#2c3e50"/>
      <stop offset="100%" style="stop-color:#3498db"/>
    </linearGradient>
  </defs>

  <!-- 背景の正方形 -->
  <rect x="8" y="8" width="32" height="32" rx="4" fill="url(#letterGradient)"/>

  <!-- 文字S -->
  <path d="M18 16 C18 14, 20 12, 24 12 C28 12, 30 14, 30 16 C30 18, 28 20, 24 20 L20 20 C16 20, 14 22, 14 24 C14 26, 16 28, 20 28 L24 28 C28 28, 30 30, 30 32 C30 34, 28 36, 24 36 C20 36, 18 34, 18 32"
        fill="none"
        stroke="white"
        stroke-width="3"
        stroke-linecap="round"/>
</svg>