<svg width="48" height="48" viewBox="0 0 48 48" xmlns="http://www.w3.org/2000/svg">
  <!-- エレガントな星羅盤ロゴ - 羽ペンと魔法をイメージ -->
  <defs>
    <linearGradient id="elegantGradient" x1="0%" y1="0%" x2="100%" y2="100%">
      <stop offset="0%" style="stop-color:#8e44ad"/>
      <stop offset="50%" style="stop-color:#3498db"/>
      <stop offset="100%" style="stop-color:#2c3e50"/>
    </linearGradient>
  </defs>

  <!-- 羽ペンのデザイン -->
  <g transform="translate(12,24) rotate(-30)">
    <!-- ペン軸 -->
    <rect x="0" y="-1" width="20" height="2" fill="#8e44ad" rx="1"/>
    <!-- ペン先 -->
    <polygon points="20,-1 24,0 20,1" fill="#2c3e50"/>
    <!-- 羽毛の装飾 -->
    <path d="M0,-1 Q-3,-5 -1,-8 Q1,-5 4,-3 Q2,-1 0,-1" fill="url(#elegantGradient)" opacity="0.8"/>
    <path d="M4,-1 Q1,-4 3,-6 Q5,-4 7,-2 Q5,-1 4,-1" fill="url(#elegantGradient)" opacity="0.6"/>
  </g>

  <!-- 魔法の星屑 -->
  <g opacity="0.7">
    <polygon points="32,12 33,14 35,14 33.5,15.5 34,17 32,16 30,17 30.5,15.5 29,14 31,14" fill="#f39c12"/>
    <polygon points="38,20 38.5,21 39.5,21 38.75,21.75 39,22.5 38,22 37,22.5 37.25,21.75 36.5,21 37.5,21" fill="#e74c3c"/>
    <polygon points="34,30 34.5,31 35.5,31 34.75,31.75 35,32.5 34,32 33,32.5 33.25,31.75 32.5,31 33.5,31" fill="#9b59b6"/>
  </g>

  <!-- 装飾的な弧線 -->
  <path d="M8,40 Q24,32 40,40" stroke="url(#elegantGradient)" stroke-width="1.5" fill="none" opacity="0.5"/>
</svg>