<svg width="48" height="48" viewBox="0 0 48 48" xmlns="http://www.w3.org/2000/svg">
  <!-- 外層 -->
  <circle cx="24" cy="24" r="22" fill="none" stroke="#1565c0" stroke-width="2"/>

  <!-- 外層装飾（24分割） -->
  <g stroke="#ffb300" stroke-width="1" fill="#ffb300">
    <!-- 主要方位マーク -->
    <rect x="23" y="2" width="2" height="4"/>
    <rect x="42" y="23" width="4" height="2"/>
    <rect x="23" y="42" width="2" height="4"/>
    <rect x="2" y="23" width="4" height="2"/>

    <!-- 副方位マーク -->
    <circle cx="35.5" cy="8.8" r="1"/>
    <circle cx="39.2" cy="12.5" r="1"/>
    <circle cx="39.2" cy="35.5" r="1"/>
    <circle cx="35.5" cy="39.2" r="1"/>
    <circle cx="12.5" cy="39.2" r="1"/>
    <circle cx="8.8" cy="35.5" r="1"/>
    <circle cx="8.8" cy="12.5" r="1"/>
    <circle cx="12.5" cy="8.8" r="1"/>
  </g>

  <!-- 中層 -->
  <circle cx="24" cy="24" r="16" fill="none" stroke="#1565c0" stroke-width="1"/>

  <!-- 中層装飾（星型要素） -->
  <g fill="#ffb300">
    <polygon points="24,10 25,13 28,13 25.5,15 26.5,18 24,16.5 21.5,18 22.5,15 20,13 23,13"/>
    <polygon points="34,14 35,17 38,17 35.5,19 36.5,22 34,20.5 31.5,22 32.5,19 30,17 33,17" transform="scale(0.7) translate(5, 0)"/>
    <polygon points="38,24 37,21 34,21 36.5,18.5 35.5,15 38,17.5 40.5,15 39.5,18.5 42,21 39,21" transform="scale(0.7) translate(7, 3)"/>
    <polygon points="34,34 35,31 38,31 35.5,29 36.5,26 34,28.5 31.5,26 32.5,29 30,31 33,31" transform="scale(0.7) translate(5, -3)"/>
    <polygon points="24,38 23,35 20,35 22.5,33 21.5,30 24,32.5 26.5,30 25.5,33 28,35 25,35"/>
    <polygon points="14,34 13,31 10,31 12.5,29 11.5,26 14,28.5 16.5,26 15.5,29 18,31 15,31" transform="scale(0.7) translate(-5, -3)"/>
    <polygon points="10,24 11,21 14,21 11.5,18.5 12.5,15 10,17.5 7.5,15 8.5,18.5 6,21 9,21" transform="scale(0.7) translate(-7, 3)"/>
    <polygon points="14,14 13,17 10,17 12.5,19 11.5,22 14,20.5 16.5,22 15.5,19 18,17 15,17" transform="scale(0.7) translate(-5, 0)"/>
  </g>

  <!-- 内層 -->
  <circle cx="24" cy="24" r="8" fill="none" stroke="#1565c0" stroke-width="1"/>

  <!-- 中央核シンボル -->
  <circle cx="24" cy="24" r="4" fill="#1565c0"/>
  <circle cx="24" cy="24" r="2" fill="#ffb300"/>

  <!-- 内層の線（九分割） -->
  <g stroke="#ffb300" stroke-width="0.5" opacity="0.8">
    <line x1="24" y1="16" x2="24" y2="32"/>
    <line x1="16" y1="24" x2="32" y2="24"/>
    <line x1="18.3" y1="18.3" x2="29.7" y2="29.7"/>
    <line x1="29.7" y1="18.3" x2="18.3" y2="29.7"/>
  </g>
</svg>