<svg width="48" height="48" viewBox="0 0 48 48" xmlns="http://www.w3.org/2000/svg">
  <!-- 外縁円 -->
  <circle cx="24" cy="24" r="22" fill="none" stroke="#212121" stroke-width="1"/>

  <!-- 八角形 -->
  <polygon points="24,6 33.9,9.9 42,18 38.1,24 42,30 33.9,38.1 24,42 14.1,38.1 6,30 9.9,24 6,18 14.1,9.9"
           fill="none" stroke="#212121" stroke-width="1.5"/>

  <!-- 中央の方位針 -->
  <g transform="translate(24,24)">
    <!-- 北を指す針（上） -->
    <polygon points="0,-15 3,-5 0,-8 -3,-5" fill="#d32f2f"/>
    <!-- 南を指す針（下） -->
    <polygon points="0,15 -3,5 0,8 3,5" fill="#212121"/>
    <!-- 東を指す針（右） -->
    <polygon points="15,0 5,-3 8,0 5,3" fill="#212121"/>
    <!-- 西を指す針（左） -->
    <polygon points="-15,0 -5,3 -8,0 -5,-3" fill="#212121"/>
  </g>

  <!-- 各頂点の星 -->
  <!-- 上 -->
  <circle cx="24" cy="6" r="1.5" fill="#d32f2f"/>
  <!-- 右上 -->
  <circle cx="33.9" cy="9.9" r="1" fill="#212121"/>
  <!-- 右 -->
  <circle cx="42" cy="18" r="1" fill="#212121"/>
  <!-- 右下 -->
  <circle cx="38.1" cy="24" r="1" fill="#212121"/>
  <!-- 下 -->
  <circle cx="42" cy="30" r="1" fill="#212121"/>
  <!-- 左下 -->
  <circle cx="33.9" cy="38.1" r="1" fill="#212121"/>
  <!-- 左 -->
  <circle cx="24" cy="42" r="1" fill="#212121"/>
  <!-- 左上 -->
  <circle cx="14.1" cy="38.1" r="1" fill="#212121"/>

  <!-- 中央ポイント -->
  <circle cx="24" cy="24" r="2" fill="#212121"/>
</svg>